<?xml version="1.0" standalone="no"?><!DOCTYPE svg PUBLIC "-//W3C//DTD SVG 1.1//EN" "http://www.w3.org/Graphics/SVG/1.1/DTD/svg11.dtd"><svg t="1646664160131" class="icon" viewBox="0 0 1024 1024" version="1.1" xmlns="http://www.w3.org/2000/svg" p-id="1947" xmlns:xlink="http://www.w3.org/1999/xlink" width="200" height="200"><defs><style type="text/css"></style></defs><path d="M530.944 61.952l249.28 249.28-72.8 72.864a95.648 95.648 0 0 1-67.84 28.064 97.632 97.632 0 0 1-11.52-2.24l-36.768 36.8 294.464 269.024a119.424 119.424 0 0 1-80.512 207.52l-2.752-0.064a118.048 118.048 0 0 1-85.376-38.72l-265.792-297.792L417.28 620.8c0.672 4.096 1.088 8.288 1.216 12.48a95.296 95.296 0 0 1-28.128 67.904l-72.8 72.832-249.344-249.344 72.832-72.832a95.456 95.456 0 0 1 77.888-25.312l212.224-212.256a96.48 96.48 0 0 1-1.152-11.616 95.424 95.424 0 0 1 28.16-67.904l72.8-72.8z m-53.888 796.736v64h-384v-64h384z m68.928-366.688l-49.312 49.344 267.904 300.224c10.144 11.008 24.384 17.408 39.36 17.6 15.136 0.64 29.856-5.28 40.384-16.16a55.488 55.488 0 0 0-1.76-80.064l-296.576-270.944z m-314.464 5.12a32.8 32.8 0 0 0-45.248 0l-27.584 27.552 158.848 158.816 27.552-27.552a32 32 0 0 0 0.032-45.248z m229.536-222.272l-179.936 179.968 105.792 105.824 179.968-180-105.824-105.792z m69.888-122.4l-27.584 27.584a32 32 0 0 0 0 45.248l113.6 113.568a32 32 0 0 0 45.216 0l27.584-27.584-158.816-158.816z" p-id="1948"></path></svg>