<?xml version="1.0" standalone="no"?><!DOCTYPE svg PUBLIC "-//W3C//DTD SVG 1.1//EN" "http://www.w3.org/Graphics/SVG/1.1/DTD/svg11.dtd"><svg t="1646667881819" class="icon" viewBox="0 0 1024 1024" version="1.1" xmlns="http://www.w3.org/2000/svg" p-id="2252" xmlns:xlink="http://www.w3.org/1999/xlink" width="200" height="200"><defs><style type="text/css"></style></defs><path d="M511.634547 0.730906c282.568451 0 511.634547 229.066096 511.634547 511.634547s-229.066096 511.634547-511.634547 511.634547-511.634547-229.066096-511.634547-511.634547 229.066096-511.634547 511.634547-511.634547zM655.257673 548.179872H365.453248a146.181299 146.181299 0 0 0-146.181299 148.739471v134.121342a432.696645 432.696645 0 0 0 584.725196 0v-135.217701A146.181299 146.181299 0 0 0 655.257673 548.179872zM511.634547 192.228408a146.181299 146.181299 0 1 0 0 292.362598 146.181299 146.181299 0 0 0 0-292.362598z" p-id="2253"></path></svg>